<mxfile host="65bd71144e">
    <diagram id="C5RBs43oDa-KdzZeNtuy" name="Page-1">
        <mxGraphModel dx="734" dy="571" grid="1" gridSize="10" guides="1" tooltips="1" connect="1" arrows="1" fold="1" page="1" pageScale="1" pageWidth="1169" pageHeight="1654" background="none" math="0" shadow="0">
            <root>
                <mxCell id="WIyWlLk6GJQsqaUBKTNV-0"/>
                <mxCell id="WIyWlLk6GJQsqaUBKTNV-1" parent="WIyWlLk6GJQsqaUBKTNV-0"/>
                <mxCell id="WIyWlLk6GJQsqaUBKTNV-9" value="Yes" style="edgeStyle=orthogonalEdgeStyle;rounded=0;html=1;jettySize=auto;orthogonalLoop=1;fontSize=11;endArrow=block;endFill=0;endSize=8;strokeWidth=1;shadow=0;labelBackgroundColor=none;" parent="WIyWlLk6GJQsqaUBKTNV-1" edge="1">
                    <mxGeometry y="10" relative="1" as="geometry">
                        <mxPoint as="offset"/>
                        <mxPoint x="270" y="330" as="sourcePoint"/>
                    </mxGeometry>
                </mxCell>
                <mxCell id="9" value="" style="edgeStyle=none;html=1;fontColor=#FFFF66;fillColor=#1ba1e2;strokeColor=#006EAF;strokeWidth=2;" parent="WIyWlLk6GJQsqaUBKTNV-1" source="0" target="6" edge="1">
                    <mxGeometry relative="1" as="geometry"/>
                </mxCell>
                <mxCell id="0" value="&lt;font style=&quot;font-size: 13px&quot;&gt;Begin&lt;/font&gt;" style="rounded=1;whiteSpace=wrap;html=1;fillColor=#1ba1e2;fontColor=#ffffff;strokeColor=#006EAF;" parent="WIyWlLk6GJQsqaUBKTNV-1" vertex="1">
                    <mxGeometry x="496.56" y="40" width="200" height="40" as="geometry"/>
                </mxCell>
                <mxCell id="6" value="&lt;span&gt;&#9;&lt;/span&gt;&lt;span&gt;&#9;&lt;/span&gt;&lt;blockquote style=&quot;margin: 0px 0px 0px 40px ; border: none ; padding: 0px ; font-size: 13px&quot;&gt;&lt;font style=&quot;font-size: 13px&quot;&gt;Prerequisite&lt;/font&gt; :&lt;/blockquote&gt;&lt;ul&gt;&lt;ul&gt;&lt;li&gt;&lt;b&gt;&lt;font color=&quot;#99ffff&quot;&gt;is_stop_order&lt;/font&gt;&lt;/b&gt;&amp;nbsp;definition variable&lt;/li&gt;&lt;li&gt;&lt;font color=&quot;#99ffff&quot;&gt;&lt;b&gt;buyer_name&amp;nbsp;&lt;/b&gt;&lt;/font&gt;definition variable&lt;/li&gt;&lt;li&gt;&lt;font color=&quot;#99ffff&quot;&gt;&lt;b&gt;&lt;b style=&quot;font-size: 13px&quot;&gt;payment_user&lt;/b&gt;&amp;nbsp;&lt;/b&gt;&lt;/font&gt;definition variable&lt;/li&gt;&lt;li&gt;&lt;b&gt;&lt;font color=&quot;#ffff66&quot;&gt;pick_main_courses()&lt;/font&gt;&lt;/b&gt;&amp;nbsp;definition method&lt;/li&gt;&lt;li&gt;&lt;b&gt;&lt;font color=&quot;#ffff66&quot;&gt;&lt;b style=&quot;color: rgb(255 , 255 , 255)&quot;&gt;&lt;font color=&quot;#ffff66&quot;&gt;pick&lt;/font&gt;&lt;/b&gt;_beverages()&lt;/font&gt;&lt;/b&gt;&amp;nbsp;definition method&lt;/li&gt;&lt;li&gt;&lt;b&gt;&lt;font color=&quot;#ffff66&quot;&gt;show_invoice_user()&lt;/font&gt;&lt;/b&gt;&amp;nbsp;definition method&lt;/li&gt;&lt;/ul&gt;&lt;/ul&gt;" style="shape=hexagon;perimeter=hexagonPerimeter2;whiteSpace=wrap;html=1;fixedSize=1;align=left;fillColor=#1ba1e2;verticalAlign=middle;horizontal=1;fontColor=#ffffff;strokeColor=#006EAF;" parent="WIyWlLk6GJQsqaUBKTNV-1" vertex="1">
                    <mxGeometry x="407.8" y="120" width="379.38" height="190" as="geometry"/>
                </mxCell>
                <mxCell id="18" value="" style="edgeStyle=none;html=1;fontSize=13;fontColor=#FFFF66;fillColor=#1ba1e2;strokeColor=#006EAF;strokeWidth=2;" parent="WIyWlLk6GJQsqaUBKTNV-1" target="15" edge="1">
                    <mxGeometry relative="1" as="geometry">
                        <mxPoint x="597.4999999999998" y="310" as="sourcePoint"/>
                    </mxGeometry>
                </mxCell>
                <mxCell id="15" value="&lt;font style=&quot;font-size: 13px&quot; color=&quot;#000000&quot;&gt;Do While&lt;/font&gt;" style="rounded=1;whiteSpace=wrap;html=1;fillColor=#99CCFF;" parent="WIyWlLk6GJQsqaUBKTNV-1" vertex="1">
                    <mxGeometry x="537.5" y="350" width="120" height="40" as="geometry"/>
                </mxCell>
                <mxCell id="59" style="edgeStyle=none;html=1;exitX=1;exitY=0.5;exitDx=0;exitDy=0;strokeColor=#006EAF;strokeWidth=2;entryX=1;entryY=0.5;entryDx=0;entryDy=0;" edge="1" parent="WIyWlLk6GJQsqaUBKTNV-1" source="16" target="41">
                    <mxGeometry relative="1" as="geometry">
                        <mxPoint x="830" y="500" as="targetPoint"/>
                        <Array as="points">
                            <mxPoint x="920" y="1120"/>
                            <mxPoint x="920" y="780"/>
                            <mxPoint x="920" y="470"/>
                        </Array>
                    </mxGeometry>
                </mxCell>
                <mxCell id="60" style="edgeStyle=none;html=1;exitX=0;exitY=0.5;exitDx=0;exitDy=0;entryX=0;entryY=0.5;entryDx=0;entryDy=0;strokeColor=#006EAF;strokeWidth=2;" edge="1" parent="WIyWlLk6GJQsqaUBKTNV-1" source="16" target="30">
                    <mxGeometry relative="1" as="geometry">
                        <Array as="points">
                            <mxPoint x="280" y="1120"/>
                            <mxPoint x="280" y="1170"/>
                            <mxPoint x="280" y="1220"/>
                        </Array>
                    </mxGeometry>
                </mxCell>
                <mxCell id="16" value="&lt;span style=&quot;color: rgb(240 , 240 , 240)&quot;&gt;Check :&lt;/span&gt;&lt;font color=&quot;#f0f0f0&quot; style=&quot;font-size: 13px&quot;&gt;&lt;br&gt;&lt;font style=&quot;font-size: 13px&quot;&gt;Is the&amp;nbsp;&lt;/font&gt;&lt;/font&gt;&lt;font style=&quot;font-size: 13px&quot;&gt;&lt;b style=&quot;font-size: 12px ; text-align: left&quot;&gt;&lt;font color=&quot;#99ffff&quot;&gt;is_stop_order&lt;/font&gt;&lt;/b&gt;&lt;font color=&quot;#f0f0f0&quot; style=&quot;font-size: 13px&quot;&gt;&amp;nbsp;equal to True?&lt;/font&gt;&lt;/font&gt;" style="shape=hexagon;perimeter=hexagonPerimeter2;whiteSpace=wrap;html=1;size=0.25;fontSize=13;fontColor=#ffffff;fillColor=#a0522d;strokeColor=#6D1F00;" parent="WIyWlLk6GJQsqaUBKTNV-1" vertex="1">
                    <mxGeometry x="437.97" y="1080" width="320" height="80" as="geometry"/>
                </mxCell>
                <mxCell id="30" value="&lt;font style=&quot;font-size: 13px&quot; color=&quot;#000000&quot;&gt;End Do While&lt;/font&gt;" style="rounded=1;whiteSpace=wrap;html=1;fillColor=#99CCFF;" parent="WIyWlLk6GJQsqaUBKTNV-1" vertex="1">
                    <mxGeometry x="537.0299999999999" y="1200" width="120" height="40" as="geometry"/>
                </mxCell>
                <mxCell id="32" value="False" style="text;html=1;resizable=0;autosize=1;align=center;verticalAlign=middle;points=[];fillColor=none;strokeColor=none;rounded=0;fontSize=13;fontColor=#006EAF;fontStyle=1" parent="WIyWlLk6GJQsqaUBKTNV-1" vertex="1">
                    <mxGeometry x="815" y="1080" width="50" height="20" as="geometry"/>
                </mxCell>
                <mxCell id="40" value="" style="edgeStyle=none;html=1;fontSize=13;fontColor=#F0F0F0;fillColor=#1ba1e2;strokeColor=#006EAF;strokeWidth=2;" parent="WIyWlLk6GJQsqaUBKTNV-1" target="39" edge="1">
                    <mxGeometry relative="1" as="geometry">
                        <mxPoint x="597.9699999999999" y="1240" as="sourcePoint"/>
                    </mxGeometry>
                </mxCell>
                <mxCell id="39" value="&lt;font style=&quot;font-size: 13px&quot;&gt;End&lt;/font&gt;" style="rounded=1;whiteSpace=wrap;html=1;fillColor=#1BA1E2;fontColor=#ffffff;strokeColor=#006EAF;" parent="WIyWlLk6GJQsqaUBKTNV-1" vertex="1">
                    <mxGeometry x="497.97" y="1280" width="200" height="40" as="geometry"/>
                </mxCell>
                <mxCell id="41" value="&lt;div style=&quot;text-align: left&quot;&gt;&lt;span style=&quot;font-size: 13px&quot;&gt;&lt;font color=&quot;#f0f0f0&quot;&gt;Input&lt;/font&gt;&amp;nbsp;&lt;font color=&quot;#99ffff&quot;&gt;&lt;b&gt;buyer_name&lt;/b&gt;&lt;/font&gt;&lt;/span&gt;&lt;/div&gt;" style="shape=parallelogram;perimeter=parallelogramPerimeter;whiteSpace=wrap;html=1;fixedSize=1;fontColor=#ffffff;fillColor=#a0522d;align=center;strokeColor=#6D1F00;" vertex="1" parent="WIyWlLk6GJQsqaUBKTNV-1">
                    <mxGeometry x="457.97" y="430" width="280" height="80" as="geometry"/>
                </mxCell>
                <mxCell id="42" value="&lt;div style=&quot;text-align: left&quot;&gt;&lt;span style=&quot;font-size: 13px&quot;&gt;&lt;font color=&quot;#f0f0f0&quot;&gt;Pick&lt;/font&gt;&amp;nbsp;&lt;/span&gt;&lt;/div&gt;&lt;b style=&quot;text-align: left&quot;&gt;&lt;font color=&quot;#ffff66&quot;&gt;pick_main_courses()&lt;/font&gt;&lt;/b&gt;" style="shape=parallelogram;perimeter=parallelogramPerimeter;whiteSpace=wrap;html=1;fixedSize=1;fontColor=#ffffff;fillColor=#a0522d;align=center;strokeColor=#6D1F00;" vertex="1" parent="WIyWlLk6GJQsqaUBKTNV-1">
                    <mxGeometry x="457.97" y="550" width="280" height="80" as="geometry"/>
                </mxCell>
                <mxCell id="45" value="" style="edgeStyle=none;html=1;fontSize=13;fontColor=#FFFF66;fillColor=#1ba1e2;strokeColor=#006EAF;strokeWidth=2;" edge="1" parent="WIyWlLk6GJQsqaUBKTNV-1">
                    <mxGeometry relative="1" as="geometry">
                        <mxPoint x="597.57" y="510" as="sourcePoint"/>
                        <mxPoint x="597.5699999999999" y="550" as="targetPoint"/>
                    </mxGeometry>
                </mxCell>
                <mxCell id="46" value="&lt;div style=&quot;text-align: left&quot;&gt;&lt;span style=&quot;font-size: 13px&quot;&gt;&lt;font color=&quot;#f0f0f0&quot;&gt;Pick&lt;/font&gt;&amp;nbsp;&lt;/span&gt;&lt;/div&gt;&lt;b style=&quot;text-align: left&quot;&gt;&lt;font color=&quot;#ffff66&quot;&gt;pick_beverages()&lt;/font&gt;&lt;/b&gt;" style="shape=parallelogram;perimeter=parallelogramPerimeter;whiteSpace=wrap;html=1;fixedSize=1;fontColor=#ffffff;fillColor=#a0522d;align=center;strokeColor=#6D1F00;" vertex="1" parent="WIyWlLk6GJQsqaUBKTNV-1">
                    <mxGeometry x="457.96000000000004" y="670" width="280" height="80" as="geometry"/>
                </mxCell>
                <mxCell id="47" value="" style="edgeStyle=none;html=1;fontSize=13;fontColor=#FFFF66;fillColor=#1ba1e2;strokeColor=#006EAF;strokeWidth=2;" edge="1" parent="WIyWlLk6GJQsqaUBKTNV-1">
                    <mxGeometry relative="1" as="geometry">
                        <mxPoint x="597.48" y="630" as="sourcePoint"/>
                        <mxPoint x="597.48" y="670" as="targetPoint"/>
                    </mxGeometry>
                </mxCell>
                <mxCell id="49" value="&lt;div style=&quot;text-align: left&quot;&gt;&lt;span style=&quot;font-size: 13px&quot;&gt;&lt;font color=&quot;#f0f0f0&quot;&gt;Input&lt;/font&gt;&amp;nbsp;&lt;font color=&quot;#99ffff&quot;&gt;&lt;b&gt;payment_user&lt;/b&gt;&lt;/font&gt;&lt;/span&gt;&lt;/div&gt;" style="shape=parallelogram;perimeter=parallelogramPerimeter;whiteSpace=wrap;html=1;fixedSize=1;fontColor=#ffffff;fillColor=#a0522d;align=center;strokeColor=#6D1F00;" vertex="1" parent="WIyWlLk6GJQsqaUBKTNV-1">
                    <mxGeometry x="457.96000000000004" y="790" width="280" height="80" as="geometry"/>
                </mxCell>
                <mxCell id="50" value="" style="edgeStyle=none;html=1;fontSize=13;fontColor=#FFFF66;fillColor=#1ba1e2;strokeColor=#006EAF;strokeWidth=2;" edge="1" parent="WIyWlLk6GJQsqaUBKTNV-1">
                    <mxGeometry relative="1" as="geometry">
                        <mxPoint x="597.77" y="750" as="sourcePoint"/>
                        <mxPoint x="597.77" y="790" as="targetPoint"/>
                    </mxGeometry>
                </mxCell>
                <mxCell id="64" value="" style="edgeStyle=none;html=1;strokeColor=#006EAF;strokeWidth=2;" edge="1" parent="WIyWlLk6GJQsqaUBKTNV-1" source="51" target="16">
                    <mxGeometry relative="1" as="geometry"/>
                </mxCell>
                <mxCell id="51" value="&lt;div style=&quot;text-align: left&quot;&gt;&lt;span style=&quot;font-size: 13px&quot;&gt;&lt;font color=&quot;#f0f0f0&quot;&gt;Show&lt;/font&gt;&amp;nbsp;&lt;/span&gt;&lt;/div&gt;&lt;b style=&quot;text-align: left&quot;&gt;&lt;font color=&quot;#ffff66&quot;&gt;show_invoice_user()&lt;/font&gt;&lt;/b&gt;" style="shape=parallelogram;perimeter=parallelogramPerimeter;whiteSpace=wrap;html=1;fixedSize=1;fontColor=#ffffff;fillColor=#a0522d;align=center;strokeColor=#6D1F00;" vertex="1" parent="WIyWlLk6GJQsqaUBKTNV-1">
                    <mxGeometry x="457.03000000000003" y="910" width="280" height="80" as="geometry"/>
                </mxCell>
                <mxCell id="52" value="" style="edgeStyle=none;html=1;fontSize=13;fontColor=#FFFF66;fillColor=#1ba1e2;strokeColor=#006EAF;strokeWidth=2;" edge="1" parent="WIyWlLk6GJQsqaUBKTNV-1">
                    <mxGeometry relative="1" as="geometry">
                        <mxPoint x="597.61" y="870" as="sourcePoint"/>
                        <mxPoint x="597.61" y="910" as="targetPoint"/>
                    </mxGeometry>
                </mxCell>
                <mxCell id="58" value="" style="edgeStyle=none;html=1;fontSize=13;fontColor=#FFFF66;fillColor=#1ba1e2;strokeColor=#006EAF;strokeWidth=2;" edge="1" parent="WIyWlLk6GJQsqaUBKTNV-1">
                    <mxGeometry relative="1" as="geometry">
                        <mxPoint x="597.54" y="390" as="sourcePoint"/>
                        <mxPoint x="597.5399999999997" y="430" as="targetPoint"/>
                    </mxGeometry>
                </mxCell>
                <mxCell id="61" value="True" style="text;html=1;resizable=0;autosize=1;align=center;verticalAlign=middle;points=[];fillColor=none;strokeColor=none;rounded=0;fontSize=13;fontColor=#006EAF;fontStyle=1" vertex="1" parent="WIyWlLk6GJQsqaUBKTNV-1">
                    <mxGeometry x="335" y="1080" width="40" height="20" as="geometry"/>
                </mxCell>
            </root>
        </mxGraphModel>
    </diagram>
</mxfile>